PathFileType  4	(X/Y/Z) C:\Users\antoi\Documents\MyRepositories\mobilecap\ResultsAnalysis
DataRate	CameraRate	NumFrames	NumMarkers	Units	OrigDataRate	OrigDataStartFrame	OrigNumFrames
100.0	100.0	4	51	mm	100.0	102	135
Frame#	Time	r_knee			r_shank_antsup			r_ankle			r_calc			r_5meta			r_toe			L_knee			L_shank_antsup			L_ankle			L_calc			L_5meta			L_toe			r_sh2			r_sh3			r_sh4			L_sh2			L_sh3			r_thigh1			r_thigh2			r_thigh3			r_thigh4			r_thigh5			L_thigh1			L_thigh2			L_thigh3			L_thigh4			r.ASIS			r.PSIS			L.ASIS			L.PSIS			C7			R_Shoulder			L_Shoulder			R_Sternum			L_Sternum			R_humerus			R_elbow_med			R_elbow_lat			R_forearm			R_wrist_radius			R_wrist_ulna			L_humerus			L_elbow_med			L_elbow_lat			L_forearm			L_wrist_radius			L_wrist_ulna			R_HJC			L_HJC			R_HJC_reg			L_HJC_reg			
		X1	Y1	Z1	X2	Y2	Z2	X3	Y3	Z3	X4	Y4	Z4	X5	Y5	Z5	X6	Y6	Z6	X7	Y7	Z7	X8	Y8	Z8	X9	Y9	Z9	X10	Y10	Z10	X11	Y11	Z11	X12	Y12	Z12	X13	Y13	Z13	X14	Y14	Z14	X15	Y15	Z15	X16	Y16	Z16	X17	Y17	Z17	X18	Y18	Z18	X19	Y19	Z19	X20	Y20	Z20	X21	Y21	Z21	X22	Y22	Z22	X23	Y23	Z23	X24	Y24	Z24	X25	Y25	Z25	X26	Y26	Z26	X27	Y27	Z27	X28	Y28	Z28	X29	Y29	Z29	X30	Y30	Z30	X31	Y31	Z31	X32	Y32	Z32	X33	Y33	Z33	X34	Y34	Z34	X35	Y35	Z35	X36	Y36	Z36	X37	Y37	Z37	X38	Y38	Z38	X39	Y39	Z39	X40	Y40	Z40	X41	Y41	Z41	X42	Y42	Z42	X43	Y43	Z43	X44	Y44	Z44	X45	Y45	Z45	X46	Y46	Z46	X47	Y47	Z47	X48	Y48	Z48	X49	Y49	Z49	X50	Y50	Z50	X51	Y51	Z51	

102	1.01000000	1242.67827	506.46679	-50.11716	1290.81665	452.35123	-56.58179	1322.38835	110.39231	-100.27493	1280.57006	67.83237	-160.02547	1425.43935	70.88770	-43.33348	1476.73756	121.88436	-75.59803	978.49283	490.54673	-313.08084	987.66707	392.65557	-313.52876	867.86836	103.33552	-260.98077	800.73275	67.95423	-207.62795	959.76711	41.09206	-314.63066	1010.83939	62.46281	-263.15460	1291.42328	335.69268	-48.87022	1206.89768	442.52194	-55.62894	1218.73985	330.74684	-68.17629	902.45452	420.95621	-310.52284	875.86322	301.75187	-306.34212	1175.79658	822.15942	-24.12785	1219.70391	716.88453	-28.72900	1176.57003	676.11011	1.74227	1072.35340	777.97866	-2.25913	1119.85893	671.15837	-11.94957	1062.98312	743.39467	-378.62768	1046.23313	611.59214	-344.33127	956.75680	762.92582	-338.56022	944.41266	626.34239	-310.17775	1155.23313	958.85619	-73.17191	966.28441	999.86654	-142.89098	1154.86475	936.91200	-322.22421	957.45364	1005.77430	-242.95325	961.08644	1401.43656	-238.53507	1043.13874	1380.68329	-48.42919	1061.13553	1372.81409	-405.73394	1097.44534	1384.41827	-202.57941	1106.22525	1384.28608	-244.07002	1032.56667	1244.60257	15.41893	967.65432	1038.69744	-41.56939	970.94052	1055.14974	29.54055	1022.59869	929.57839	66.08836	1039.89803	796.43816	85.09442	1006.31188	791.55925	97.46971	1115.04770	1268.91277	-463.43847	1185.45491	1040.06817	-409.58808	1190.38398	1068.22877	-484.35327	1302.68306	1039.96944	-486.97802	1435.89646	953.67460	-497.25405	1415.75168	932.09675	-517.38288	1075.58130	880.78838	-88.48950	1068.67986	871.43967	-294.63238	1089.20987	869.69119	-106.19454	1074.72815	879.37854	-270.28277	
103	1.02000000	1249.82754	502.13474	-52.46651	1300.42595	450.53075	-57.04905	1348.45230	109.86764	-101.20112	1310.50921	65.17548	-162.33357	1452.35148	74.87431	-42.02029	1501.57059	128.57369	-72.73441	984.65514	489.87602	-313.31680	992.51979	391.81331	-313.82589	868.52996	104.04179	-261.33025	801.03466	68.78914	-207.88242	959.89182	40.94413	-314.77605	1011.27571	62.30753	-263.44623	1305.24016	333.90661	-50.19263	1216.75397	437.33307	-59.35192	1233.83726	325.93731	-72.61891	907.58146	421.25688	-311.14701	879.50041	302.37564	-306.86017	1184.91661	817.65764	-22.85936	1227.42050	711.86451	-28.45157	1183.33648	671.20908	0.88153	1080.44262	774.42570	-3.63712	1126.30738	667.02338	-14.27316	1072.81881	741.63284	-378.65558	1054.15296	610.14738	-344.26553	966.72741	762.58447	-339.07801	952.34823	626.20898	-310.74573	1166.67150	956.35787	-72.36550	977.79046	997.40267	-142.22736	1166.49940	934.59068	-321.45265	969.03996	1003.53058	-242.35497	972.43189	1399.25284	-238.49103	1054.27174	1378.42812	-48.10164	1073.56468	1370.63010	-405.43533	1109.05100	1382.25794	-202.14428	1117.99450	1382.07846	-243.56891	1042.61754	1242.38742	15.47321	977.39287	1036.80623	-42.29602	979.81947	1053.36129	28.76329	1029.25629	927.25236	66.21762	1044.19763	793.76983	85.54541	1010.51398	789.41850	97.62846	1128.53076	1267.47721	-462.94409	1201.86606	1039.58368	-409.65364	1207.32962	1068.42145	-484.12168	1320.43838	1043.69488	-485.06113	1456.64098	962.23064	-493.82779	1437.54104	940.11015	-514.39037	1086.99103	878.30771	-87.84617	1080.28159	869.14167	-294.00324	1100.71128	867.03259	-105.63174	1086.37033	877.07486	-269.72371	
104	1.03000000	1257.54030	498.15644	-54.90935	1310.58823	448.80886	-58.04721	1371.32317	109.52128	-101.69404	1336.44601	63.01614	-163.65946	1476.00636	78.46761	-40.91363	1523.26597	134.15877	-70.75149	991.37585	489.12389	-313.56456	997.94776	390.87777	-314.12959	869.30869	104.89733	-261.77408	801.42230	69.88929	-208.21616	960.05457	40.79114	-314.93400	1011.77252	62.13605	-263.78355	1318.74338	332.34031	-51.55841	1227.26296	432.95664	-62.60883	1248.44368	321.95181	-76.16258	913.31154	421.55929	-311.90202	883.57857	303.03456	-307.46467	1193.94041	813.12671	-21.10505	1235.10097	706.86224	-27.76157	1189.93919	666.27829	-0.05013	1088.45585	770.86396	-5.40852	1132.64768	662.81454	-17.10275	1082.92272	739.87333	-378.67414	1062.49129	608.68025	-344.24657	976.96054	762.08247	-339.56926	960.70838	625.95195	-311.28244	1178.16789	953.85198	-71.47341	989.36195	994.91841	-141.52514	1178.17747	932.28686	-320.64386	980.69531	1001.25914	-241.71348	983.85609	1397.06196	-238.32228	1065.54280	1376.16460	-47.66946	1086.02133	1368.41827	-405.02945	1120.76781	1380.08732	-201.61639	1129.88324	1379.87726	-242.96760	1052.94233	1240.14621	15.63210	987.45509	1034.85336	-42.87141	989.07697	1051.52761	28.14278	1036.37268	924.93520	66.46992	1048.98444	791.02200	86.02624	1015.28730	787.36359	97.88506	1142.06032	1266.00111	-462.37354	1217.92722	1038.98457	-409.51256	1223.94260	1068.48602	-483.67908	1337.65202	1047.13415	-482.98095	1476.52312	970.38588	-490.25879	1458.44823	947.78416	-511.22355	1098.46589	875.81269	-87.15727	1091.95775	866.84154	-293.32927	1112.26824	864.36688	-104.99043	1098.07043	874.75426	-269.11718	
105	1.04000000	1266.13432	494.70825	-57.23668	1321.50520	447.23020	-59.54061	1390.77414	109.04418	-101.84602	1357.85865	61.07366	-164.02465	1496.25570	81.22792	-40.29156	1541.84601	138.12538	-70.02095	998.66844	488.29892	-313.78628	1003.93629	389.86147	-314.42058	870.25527	105.92889	-262.29249	801.92489	71.31409	-208.61972	960.25402	40.64403	-315.10521	1012.30276	61.92442	-264.15091	1332.07335	330.96383	-52.90641	1238.50100	429.51142	-65.10853	1262.46416	318.81997	-78.48092	919.66664	421.87590	-312.72236	888.09157	303.75518	-308.09992	1203.07059	808.81360	-19.01158	1243.04391	702.15819	-26.77615	1196.76577	661.57974	-1.04269	1096.70927	767.48495	-7.42007	1139.38906	658.85119	-20.16917	1093.29504	738.13552	-378.66266	1071.26390	607.19537	-344.25623	987.45897	761.44845	-339.96646	969.52328	625.56536	-311.72690	1189.73337	951.36154	-70.53686	1001.01313	992.48951	-140.79687	1189.88311	930.01632	-319.84656	992.43068	999.02392	-241.03452	995.40086	1394.89644	-238.03043	1076.94944	1373.93012	-47.13072	1098.50430	1366.23240	-404.50394	1132.59898	1377.95754	-200.99425	1141.88440	1377.73547	-242.26733	1063.54627	1237.91145	15.89946	997.83751	1032.86799	-43.28287	998.72768	1049.67370	27.68979	1043.98204	922.65927	66.84894	1054.26904	788.18904	86.52495	1020.66264	785.40531	98.25280	1155.63447	1264.52307	-461.72543	1233.62843	1038.27735	-409.15969	1240.17732	1068.41833	-483.03572	1354.31777	1050.26730	-480.76397	1495.54307	978.08807	-486.57504	1478.47023	955.05733	-507.88606	1110.00151	873.34645	-86.44951	1103.67304	864.57853	-292.63615	1123.85749	861.74536	-104.29793	1109.79849	872.45002	-268.49667	
